<?xml version="1.0" encoding="UTF-8"?>
<svg width="16px" height="15px" viewBox="0 0 16 15" version="1.1" xmlns="http://www.w3.org/2000/svg" xmlns:xlink="http://www.w3.org/1999/xlink">
    <!-- Generator: Sketch 49.3 (51167) - http://www.bohemiancoding.com/sketch -->
    <title>Group 3</title>
    <desc>Created with Sketch.</desc>
    <defs>
        <path d="M14.5,10 L13,10 L13,8.5 C13,8.23333333 12.7666667,8 12.5,8 L11.5,8 C11.2333333,8 11,8.23333333 11,8.5 L11,10 L9.5,10 C9.23333333,10 9,10.2333333 9,10.5 L9,11.5 C9,11.7666667 9.23333333,12 9.5,12 L11,12 L11,13.5 C11,13.7666667 11.2333333,14 11.5,14 L12.5,14 C12.7666667,14 13,13.7666667 13,13.5 L13,12 L14.5,12 C14.7666667,12 15,11.7666667 15,11.5 L15,10.5 C15,10.2333333 14.7666667,10 14.5,10 Z" id="path-1"></path>
    </defs>
    <g id="Page-1" stroke="none" stroke-width="1" fill="none" fill-rule="evenodd">
        <g id="Admin--lista-usuario" transform="translate(-160.000000, -213.000000)">
            <g id="Group" transform="translate(143.000000, 200.000000)">
                <g id="Group-7" transform="translate(17.000000, 13.000000)">
                    <g id="Group-3">
                        <path d="M7.92930851,6.77933333 C7.92930851,6.12986667 8.4498617,6.342 8.67832979,5.15266667 C8.77320213,4.65933333 9.23290426,5.14466667 9.3208617,4.0184 C9.3208617,3.56946667 9.06998936,3.458 9.06998936,3.458 C9.06998936,3.458 9.1975,2.79373333 9.24742553,2.28253333 C9.30924468,1.6456 8.8657234,0 6.4998617,0 C4.134,0 3.69020213,1.6456 3.75229787,2.28253333 C3.8022234,2.79373333 3.92973404,3.458 3.92973404,3.458 C3.92973404,3.458 3.6788617,3.56946667 3.6788617,4.0184 C3.76668085,5.14466667 4.22638298,4.65933333 4.32125532,5.15266667 C4.55,6.34186667 5.0702766,6.12986667 5.0702766,6.77933333 C5.0702766,7.86106667 4.52565957,8.36626667 2.821,8.96533333 C1.11094681,9.56613333 0,10.1786667 0,10.5964 L0,12 L6.5,12 L13,12 L13,10.5964 C12.9998617,10.1786667 11.8889149,9.56613333 10.1788617,8.96533333 C8.47420213,8.36626667 7.92930851,7.86106667 7.92930851,6.77933333 Z" id="User" fill="#FFFFFF"></path>
                        <mask id="mask-2" fill="white">
                            <use xlink:href="#path-1"></use>
                        </mask>
                        <use id="Mask" stroke="#F22961" fill="#FFFFFF" xlink:href="#path-1"></use>
                    </g>
                </g>
            </g>
        </g>
    </g>
</svg>