<?xml version="1.0" encoding="UTF-8"?>
<svg width="22px" height="22px" viewBox="0 0 22 22" version="1.1" xmlns="http://www.w3.org/2000/svg" xmlns:xlink="http://www.w3.org/1999/xlink">
    <!-- Generator: Sketch 49.3 (51167) - http://www.bohemiancoding.com/sketch -->
    <title>Group</title>
    <desc>Created with Sketch.</desc>
    <defs>
        <path d="M16.5325324,8.81011646 C16.6117755,8.92693737 16.7442249,8.99942745 16.8866667,9 L17,9 C18.1045695,9 19,9.8954305 19,11 C19,12.1045695 18.1045695,13 17,13 L16.9426589,12.9999947 C16.7699446,13.0006835 16.6141314,13.1038711 16.5460932,13.262621 C16.4717164,13.431241 16.5060365,13.6205218 16.6247379,13.7419288 L16.6644756,13.7816667 C17.0400296,14.1568032 17.2510489,14.6658482 17.2510489,15.1966667 C17.2510489,15.7274852 17.0400296,16.2365302 16.665,16.6111422 C16.2898635,16.9866963 15.7808185,17.1977155 15.25,17.1977155 C14.7191815,17.1977155 14.2101365,16.9866963 13.8352621,16.6114045 L13.80049,16.5765751 C13.6738551,16.4527032 13.4845743,16.4183831 13.3159543,16.4927599 C13.1572044,16.560798 13.0540169,16.7166112 13.0533333,16.8866667 L13.0533333,17 C13.0533333,18.1045695 12.1579028,19 11.0533333,19 C9.94876383,19 9.05333333,18.1045695 9.05333333,17 C9.04935475,16.7777053 8.9368759,16.6204432 8.73082311,16.5432417 C8.56875905,16.4717164 8.37947821,16.5060365 8.25807119,16.6247379 L8.21833333,16.6644756 C7.84319682,17.0400296 7.33415183,17.2510489 6.80333333,17.2510489 C6.27251484,17.2510489 5.76346985,17.0400296 5.38885777,16.665 C5.01330368,16.2898635 4.80228446,15.7808185 4.80228446,15.25 C4.80228446,14.7191815 5.01330368,14.2101365 5.38859548,13.8352621 L5.42342494,13.80049 C5.54729679,13.6738551 5.58161694,13.4845743 5.50724012,13.3159543 C5.43920198,13.1572044 5.28338876,13.0540169 5.11333333,13.0533333 L5,13.0533333 C3.8954305,13.0533333 3,12.1579028 3,11.0533333 C3,9.94876383 3.8954305,9.05333333 5,9.05333333 C5.22229471,9.04935475 5.37955679,8.9368759 5.45675828,8.73082311 C5.52828361,8.56875905 5.49396346,8.37947821 5.37526215,8.25807119 L5.33552444,8.21833333 C4.95997035,7.84319682 4.74895112,7.33415183 4.74895112,6.80333333 C4.74895112,6.27251484 4.95997035,5.76346985 5.335,5.38885777 C5.71013651,5.01330368 6.2191815,4.80228446 6.75,4.80228446 C7.2808185,4.80228446 7.78986349,5.01330368 8.16473785,5.38859548 L8.19950997,5.42342494 C8.32614487,5.54729679 8.51542571,5.58161694 8.67748977,5.51009161 C8.72020431,5.49123998 8.76466258,5.47697941 8.81011646,5.46746764 C8.92693737,5.3882245 8.99942745,5.25577513 9,5.11333333 L9,5 C9,3.8954305 9.8954305,3 11,3 C12.1045695,3 13,3.8954305 13,5 L12.9999947,5.05734113 C13.0006835,5.23005543 13.1038711,5.38586865 13.2691769,5.45675828 C13.431241,5.52828361 13.6205218,5.49396346 13.7419288,5.37526215 L13.7816667,5.33552444 C14.1568032,4.95997035 14.6658482,4.74895112 15.1966667,4.74895112 C15.7274852,4.74895112 16.2365302,4.95997035 16.6111422,5.335 C16.9866963,5.71013651 17.1977155,6.2191815 17.1977155,6.75 C17.1977155,7.2808185 16.9866963,7.78986349 16.6114045,8.16473785 L16.5765751,8.19950997 C16.4527032,8.32614487 16.4183831,8.51542571 16.4899084,8.67748977 C16.50876,8.72020431 16.5230206,8.76466258 16.5325324,8.81011646 Z M9.08652395,6.78102806 C8.45647854,7.00189203 7.74975321,6.84863811 7.26192881,6.37140452 L7.22166667,6.33114223 C7.09662116,6.20595753 6.9269395,6.13561779 6.75,6.13561779 C6.5730605,6.13561779 6.40337884,6.20595753 6.2778089,6.33166667 C6.1526242,6.45671217 6.08228446,6.62639383 6.08228446,6.80333333 C6.08228446,6.98027283 6.1526242,7.1499545 6.27807119,7.27526215 L6.32324172,7.32049003 C6.82825771,7.83677077 6.96817833,8.60845419 6.6923574,9.23012073 C6.44195631,9.91095313 5.80081086,10.3695207 5.06,10.3866667 L5,10.3866667 C4.63181017,10.3866667 4.33333333,10.6851435 4.33333333,11.0533333 C4.33333333,11.4215232 4.63181017,11.72 5,11.72 L5.11599221,11.7200053 C5.82013513,11.7228137 6.45537364,12.1435014 6.72990839,12.7841564 C7.02151167,13.4448791 6.88159105,14.2165626 6.37140452,14.7380712 L6.33114223,14.7783333 C6.20595753,14.9033788 6.13561779,15.0730605 6.13561779,15.25 C6.13561779,15.4269395 6.20595753,15.5966212 6.33166667,15.7221911 C6.45671217,15.8473758 6.62639383,15.9177155 6.80333333,15.9177155 C6.98027283,15.9177155 7.1499545,15.8473758 7.27526215,15.7219288 L7.32049003,15.6767583 C7.83677077,15.1717423 8.60845419,15.0318217 9.23012073,15.3076426 C9.91095313,15.5580437 10.3695207,16.1991891 10.3866667,16.94 L10.3866667,17 C10.3866667,17.3681898 10.6851435,17.6666667 11.0533333,17.6666667 C11.4215232,17.6666667 11.72,17.3681898 11.72,17 L11.7200053,16.8840078 C11.7228137,16.1798649 12.1435014,15.5446264 12.7841564,15.2700916 C13.4448791,14.9784883 14.2165626,15.118409 14.7380712,15.6285955 L14.7783333,15.6688578 C14.9033788,15.7940425 15.0730605,15.8643822 15.25,15.8643822 C15.4269395,15.8643822 15.5966212,15.7940425 15.7221911,15.6683333 C15.8473758,15.5432878 15.9177155,15.3736062 15.9177155,15.1966667 C15.9177155,15.0197272 15.8473758,14.8500455 15.7219288,14.7247379 L15.6767583,14.67951 C15.1717423,14.1632292 15.0318217,13.3915458 15.3234249,12.7308231 C15.5979597,12.0901681 16.2331982,11.6694803 16.94,11.6666667 L17,11.6666667 C17.3681898,11.6666667 17.6666667,11.3681898 17.6666667,11 C17.6666667,10.6318102 17.3681898,10.3333333 17,10.3333333 L16.8840078,10.333328 C16.1798649,10.3305197 15.5446264,9.90983191 15.2672401,9.26262096 C15.2430963,9.20628755 15.226891,9.14702352 15.2189719,9.08652395 C14.998108,8.45647854 15.1513619,7.74975321 15.6285955,7.26192881 L15.6688578,7.22166667 C15.7940425,7.09662116 15.8643822,6.9269395 15.8643822,6.75 C15.8643822,6.5730605 15.7940425,6.40337884 15.6683333,6.2778089 C15.5432878,6.1526242 15.3736062,6.08228446 15.1966667,6.08228446 C15.0197272,6.08228446 14.8500455,6.1526242 14.7247379,6.27807119 L14.67951,6.32324172 C14.1632292,6.82825771 13.3915458,6.96817833 12.737379,6.67942655 C12.0901681,6.40204031 11.6694803,5.7668018 11.6666667,5.06 L11.6666667,5 C11.6666667,4.63181017 11.3681898,4.33333333 11,4.33333333 C10.6318102,4.33333333 10.3333333,4.63181017 10.3333333,5 L10.333328,5.11599221 C10.3305197,5.82013513 9.90983191,6.45537364 9.26262096,6.73275988 C9.20628755,6.75690365 9.14702352,6.77310903 9.08652395,6.78102806 Z M11,13.6666667 C9.52724067,13.6666667 8.33333333,12.4727593 8.33333333,11 C8.33333333,9.52724067 9.52724067,8.33333333 11,8.33333333 C12.4727593,8.33333333 13.6666667,9.52724067 13.6666667,11 C13.6666667,12.4727593 12.4727593,13.6666667 11,13.6666667 Z M11,12.3333333 C11.7363797,12.3333333 12.3333333,11.7363797 12.3333333,11 C12.3333333,10.2636203 11.7363797,9.66666667 11,9.66666667 C10.2636203,9.66666667 9.66666667,10.2636203 9.66666667,11 C9.66666667,11.7363797 10.2636203,12.3333333 11,12.3333333 Z" id="path-1"></path>
    </defs>
    <g id="Symbols" stroke="none" stroke-width="1" fill="none" fill-rule="evenodd">
        <g id="Icon-/-Sub-Header-/-People-Copy-3" transform="translate(-1.000000, -1.000000)">
            <g id="People">
                <g id="Icon">
                    <g id="Group" transform="translate(1.000000, 1.000000)">
                        <circle id="Oval-6" fill="#F22961" cx="11" cy="11" r="11"></circle>
                        <mask id="mask-2" fill="white">
                            <use xlink:href="#path-1"></use>
                        </mask>
                        <use id="Combined-Shape" fill="#FFFFFF" fill-rule="nonzero" xlink:href="#path-1"></use>
                    </g>
                </g>
            </g>
        </g>
    </g>
</svg>