<?xml version="1.0" encoding="UTF-8"?>
<svg width="40px" height="42px" viewBox="0 0 40 42" version="1.1" xmlns="http://www.w3.org/2000/svg" xmlns:xlink="http://www.w3.org/1999/xlink">
    <!-- Generator: Sketch 49.3 (51167) - http://www.bohemiancoding.com/sketch -->
    <title>Group 4</title>
    <desc>Created with Sketch.</desc>
    <defs>
        <path d="M25,30 C25,30.5522847 24.5522847,31 24,31 C23.4477153,31 23,30.5522847 23,30 L23,28 C23,26.3431458 21.6568542,25 20,25 L13,25 C11.3431458,25 10,26.3431458 10,28 L10,30 C10,30.5522847 9.55228475,31 9,31 C8.44771525,31 8,30.5522847 8,30 L8,28 C8,25.2385763 10.2385763,23 13,23 L20,23 C22.7614237,23 25,25.2385763 25,28 L25,30 Z M17,21 C14.2385763,21 12,18.7614237 12,16 C12,13.2385763 14.2385763,11 17,11 C19.7614237,11 22,13.2385763 22,16 C22,18.7614237 19.7614237,21 17,21 Z M17,19 C18.6568542,19 20,17.6568542 20,16 C20,14.3431458 18.6568542,13 17,13 C15.3431458,13 14,14.3431458 14,16 C14,17.6568542 15.3431458,19 17,19 Z M25.7071068,19.2928932 L27,20.5857864 L30.2928932,17.2928932 C30.6834175,16.9023689 31.3165825,16.9023689 31.7071068,17.2928932 C32.0976311,17.6834175 32.0976311,18.3165825 31.7071068,18.7071068 L27.7071068,22.7071068 C27.3165825,23.0976311 26.6834175,23.0976311 26.2928932,22.7071068 L24.2928932,20.7071068 C23.9023689,20.3165825 23.9023689,19.6834175 24.2928932,19.2928932 C24.6834175,18.9023689 25.3165825,18.9023689 25.7071068,19.2928932 Z" id="path-1"></path>
    </defs>
    <g id="Page-1" stroke="none" stroke-width="1" fill="none" fill-rule="evenodd">
        <g id="Formulario-Cliente-2" transform="translate(-1006.000000, -582.000000)">
            <g id="Group-7" transform="translate(276.000000, 125.000000)">
                <g id="Group-2" transform="translate(730.000000, 457.000000)">
                    <g id="Group-4">
                        <path d="M0,4.00811116 C0,1.79449249 1.79642476,0 4.00002553,0 L35.9999745,0 C38.2091276,0 40,1.79125179 40,4.00811116 L40,37.9918888 C40,40.2055075 38.2035752,42 35.9999745,42 L4.00002553,42 C1.79087243,42 0,40.2087482 0,37.9918888 L0,4.00811116 Z" id="field1-copy" fill="#F22961" transform="translate(20.000000, 21.000000) scale(-1, 1) translate(-20.000000, -21.000000) "></path>
                        <mask id="mask-2" fill="white">
                            <use xlink:href="#path-1"></use>
                        </mask>
                        <use id="Combined-Shape" fill="#FFFFFF" fill-rule="nonzero" xlink:href="#path-1"></use>
                    </g>
                </g>
            </g>
        </g>
    </g>
</svg>