<?xml version="1.0" encoding="UTF-8"?>
<svg width="40px" height="42px" viewBox="0 0 40 42" version="1.1" xmlns="http://www.w3.org/2000/svg" xmlns:xlink="http://www.w3.org/1999/xlink">
    <!-- Generator: Sketch 49.3 (51167) - http://www.bohemiancoding.com/sketch -->
    <title>Group 8</title>
    <desc>Created with Sketch.</desc>
    <defs>
        <path d="M28.5,18.0857864 L30.2928932,16.2928932 C30.6834175,15.9023689 31.3165825,15.9023689 31.7071068,16.2928932 C32.0976311,16.6834175 32.0976311,17.3165825 31.7071068,17.7071068 L29.9142136,19.5 L31.7071068,21.2928932 C32.0976311,21.6834175 32.0976311,22.3165825 31.7071068,22.7071068 C31.3165825,23.0976311 30.6834175,23.0976311 30.2928932,22.7071068 L28.5,20.9142136 L26.7071068,22.7071068 C26.3165825,23.0976311 25.6834175,23.0976311 25.2928932,22.7071068 C24.9023689,22.3165825 24.9023689,21.6834175 25.2928932,21.2928932 L27.0857864,19.5 L25.2928932,17.7071068 C24.9023689,17.3165825 24.9023689,16.6834175 25.2928932,16.2928932 C25.6834175,15.9023689 26.3165825,15.9023689 26.7071068,16.2928932 L28.5,18.0857864 Z M25,30 C25,30.5522847 24.5522847,31 24,31 C23.4477153,31 23,30.5522847 23,30 L23,28 C23,26.3431458 21.6568542,25 20,25 L13,25 C11.3431458,25 10,26.3431458 10,28 L10,30 C10,30.5522847 9.55228475,31 9,31 C8.44771525,31 8,30.5522847 8,30 L8,28 C8,25.2385763 10.2385763,23 13,23 L20,23 C22.7614237,23 25,25.2385763 25,28 L25,30 Z M16.5,21 C13.7385763,21 11.5,18.7614237 11.5,16 C11.5,13.2385763 13.7385763,11 16.5,11 C19.2614237,11 21.5,13.2385763 21.5,16 C21.5,18.7614237 19.2614237,21 16.5,21 Z M16.5,19 C18.1568542,19 19.5,17.6568542 19.5,16 C19.5,14.3431458 18.1568542,13 16.5,13 C14.8431458,13 13.5,14.3431458 13.5,16 C13.5,17.6568542 14.8431458,19 16.5,19 Z" id="path-1"></path>
    </defs>
    <g id="Page-1" stroke="none" stroke-width="1" fill="none" fill-rule="evenodd">
        <g id="Formulario-Cliente-2" transform="translate(-1006.000000, -640.000000)">
            <g id="Group-7" transform="translate(276.000000, 125.000000)">
                <g id="Group-8" transform="translate(730.000000, 515.000000)">
                    <g id="Form-URL-Copy-2" fill="#D9D9D9">
                        <g id="Group-3">
                            <path d="M0,4.00811116 C0,1.79449249 1.79642476,0 4.00002553,0 L35.9999745,0 C38.2091276,0 40,1.79125179 40,4.00811116 L40,37.9918888 C40,40.2055075 38.2035752,42 35.9999745,42 L4.00002553,42 C1.79087243,42 0,40.2087482 0,37.9918888 L0,4.00811116 Z" id="field1-copy-2"></path>
                        </g>
                    </g>
                    <mask id="mask-2" fill="white">
                        <use xlink:href="#path-1"></use>
                    </mask>
                    <use id="Combined-Shape" fill="#FFFFFF" fill-rule="nonzero" xlink:href="#path-1"></use>
                </g>
            </g>
        </g>
    </g>
</svg>