<?xml version="1.0" encoding="UTF-8"?>
<svg width="8px" height="9px" viewBox="0 0 8 9" version="1.1" xmlns="http://www.w3.org/2000/svg" xmlns:xlink="http://www.w3.org/1999/xlink">
    <!-- Generator: Sketch 49.3 (51167) - http://www.bohemiancoding.com/sketch -->
    <title>Editar</title>
    <desc>Created with Sketch.</desc>
    <defs>
        <path d="M6,1.7 L7.6,1.7 C7.8209139,1.7 8,1.8790861 8,2.1 C8,2.3209139 7.8209139,2.5 7.6,2.5 L7.2,2.5 L7.2,7.7 C7.2,8.3627417 6.6627417,8.9 6,8.9 L2,8.9 C1.3372583,8.9 0.8,8.3627417 0.8,7.7 L0.8,2.5 L0.4,2.5 C0.1790861,2.5 0,2.3209139 0,2.1 C0,1.8790861 0.1790861,1.7 0.4,1.7 L2,1.7 L2,1.3 C2,0.6372583 2.5372583,0.1 3.2,0.1 L4.8,0.1 C5.4627417,0.1 6,0.6372583 6,1.3 L6,1.7 Z M5.2,1.7 L5.2,1.3 C5.2,1.0790861 5.0209139,0.9 4.8,0.9 L3.2,0.9 C2.9790861,0.9 2.8,1.0790861 2.8,1.3 L2.8,1.7 L5.2,1.7 Z M6.4,2.5 L1.6,2.5 L1.6,7.7 C1.6,7.9209139 1.7790861,8.1 2,8.1 L6,8.1 C6.2209139,8.1 6.4,7.9209139 6.4,7.7 L6.4,2.5 Z M2.8,4.1 C2.8,3.8790861 2.9790861,3.7 3.2,3.7 C3.4209139,3.7 3.6,3.8790861 3.6,4.1 L3.6,6.5 C3.6,6.7209139 3.4209139,6.9 3.2,6.9 C2.9790861,6.9 2.8,6.7209139 2.8,6.5 L2.8,4.1 Z M4.4,4.1 C4.4,3.8790861 4.5790861,3.7 4.8,3.7 C5.0209139,3.7 5.2,3.8790861 5.2,4.1 L5.2,6.5 C5.2,6.7209139 5.0209139,6.9 4.8,6.9 C4.5790861,6.9 4.4,6.7209139 4.4,6.5 L4.4,4.1 Z" id="path-1"></path>
    </defs>
    <g id="Symbols" stroke="none" stroke-width="1" fill="none" fill-rule="evenodd">
        <g id="table-/-row-cliente" transform="translate(-1032.000000, -17.000000)">
            <g id="borrar" transform="translate(1029.000000, 15.000000)">
                <g id="Group-5" transform="translate(3.000000, 2.000000)">
                    <mask id="mask-2" fill="white">
                        <use xlink:href="#path-1"></use>
                    </mask>
                    <use id="Combined-Shape" fill="#BABABA" fill-rule="nonzero" xlink:href="#path-1"></use>
                </g>
            </g>
        </g>
    </g>
</svg>