<?xml version="1.0" encoding="UTF-8"?>
<svg width="12px" height="12px" viewBox="0 0 12 12" version="1.1" xmlns="http://www.w3.org/2000/svg" xmlns:xlink="http://www.w3.org/1999/xlink">
    <!-- Generator: Sketch 49.3 (51167) - http://www.bohemiancoding.com/sketch -->
    <title>Imported Layers</title>
    <desc>Created with Sketch.</desc>
    <defs></defs>
    <g id="Symbols" stroke="none" stroke-width="1" fill="none" fill-rule="evenodd">
        <g id="Ventana-Usuario" transform="translate(-127.000000, -124.000000)" fill="#B5B5B5">
            <path d="M137.894462,135.692308 L129.984,135.692308 C129.729231,135.692308 129.522462,135.485846 129.522462,135.230769 C129.522462,130.968308 132.978769,130.548923 133.013538,130.545231 C133.566769,130.484 133.858769,130.815692 133.858769,131.136615 L133.858769,131.405846 L135.291385,130.255077 L133.858769,129.108 L133.858769,129.371692 C133.858769,129.592615 133.728615,129.789538 133.510154,129.898462 C133.385538,129.960923 133.236,129.993846 133.077231,129.993846 L133.017538,129.993231 C132.610462,129.993231 129.009846,130.073538 127.889846,132.853538 C127.807077,133.058769 127.590769,133.175692 127.373846,133.134154 C127.156923,133.092 127,132.902154 127,132.680923 L127,124.798154 C127,124.358154 127.358154,124 127.798154,124 L137.894462,124 C138.334462,124 138.692615,124.358154 138.692615,124.798154 L138.692615,134.894462 C138.692615,135.334462 138.334462,135.692308 137.894462,135.692308 L137.894462,135.692308 Z M130.462154,134.769231 L137.769538,134.769231 L137.769538,124.923077 L127.923077,124.923077 L127.923077,131.080615 C129.587692,129.238462 132.321846,129.082154 132.935692,129.070769 L132.935692,128.524923 C132.935692,128.148308 133.197538,127.864 133.544308,127.864 C133.675692,127.864 133.809846,127.906769 133.932308,127.987077 C133.944308,127.994769 133.956,128.003385 133.967385,128.012615 L136.073538,129.698769 C136.266154,129.833846 136.376308,130.035385 136.376308,130.254462 C136.376615,130.473538 136.266769,130.674769 136.074462,130.810154 L133.967692,132.502462 C133.956308,132.511385 133.944615,132.52 133.932308,132.528 C133.635692,132.723385 133.263385,132.670462 133.070769,132.417538 C132.982462,132.301538 132.935692,132.153846 132.935692,131.991077 L132.935692,131.495385 C132.369846,131.624 130.648615,132.223692 130.462154,134.769231 L130.462154,134.769231 Z M133.110154,131.449231 C133.124,131.456615 133.136,131.460923 133.145846,131.462462 L133.062769,131.004 L133.110154,131.449231 L133.110154,131.449231 Z" id="Imported-Layers"></path>
        </g>
    </g>
</svg>