<?xml version="1.0" encoding="UTF-8"?>
<svg width="13px" height="14px" viewBox="0 0 13 14" version="1.1" xmlns="http://www.w3.org/2000/svg" xmlns:xlink="http://www.w3.org/1999/xlink">
    <!-- Generator: Sketch 49.3 (51167) - http://www.bohemiancoding.com/sketch -->
    <title>Imported Layers</title>
    <desc>Created with Sketch.</desc>
    <defs></defs>
    <g id="Symbols" stroke="none" stroke-width="1" fill="none" fill-rule="evenodd">
        <g id="Ventana-Usuario" transform="translate(-126.000000, -65.000000)" stroke="#B5B5B5">
            <path d="M137.223805,72.7852327 C137.156985,72.7133329 137.124808,72.6157929 137.135963,72.5181094 C137.15534,72.3480958 137.165387,72.1752492 137.165387,72 C137.165387,71.8247866 137.15534,71.6519042 137.135963,71.4818906 C137.124808,71.3842071 137.156985,71.286703 137.223805,71.2147673 L138.218707,70.1438715 C138.319456,70.0353941 138.337797,69.8737001 138.263933,69.7453202 L137.405889,68.2546798 C137.332026,68.1263358 137.183227,68.0613928 137.039218,68.094707 L135.616867,68.42351 C135.521195,68.4456358 135.420661,68.4246934 135.341864,68.3659542 C135.066217,68.1605107 134.766438,67.9857635 134.447496,67.8469841 C134.357616,67.8078964 134.289509,67.7310837 134.260836,67.6371297 L133.833994,66.2385426 C133.790735,66.0968228 133.660276,66 133.512514,66 L131.796461,66 C131.648699,66 131.51824,66.0968228 131.474981,66.2385426 L131.048139,67.6371297 C131.019467,67.7310837 130.951324,67.8078964 130.861443,67.8469841 C130.542501,67.9857635 130.242758,68.1605107 129.967111,68.3659542 C129.888314,68.4246934 129.78778,68.4456358 129.692108,68.42351 L128.269757,68.094707 C128.125748,68.0613928 127.976949,68.1263358 127.90305,68.2546798 L127.045042,69.7453202 C126.971178,69.8737001 126.989483,70.0353941 127.090232,70.1438715 L128.085134,71.2147673 C128.151954,71.286703 128.184167,71.3842071 128.173012,71.4818906 C128.153635,71.6519042 128.143588,71.8247866 128.143588,72 C128.143588,72.1752492 128.153635,72.3480958 128.173012,72.5181094 C128.184167,72.6157929 128.151954,72.7133329 128.085134,72.7852327 L127.090232,73.8561644 C126.989483,73.9646059 126.971178,74.1262999 127.045042,74.2546798 L127.90305,75.7453202 C127.976949,75.8737001 128.125748,75.9386072 128.269757,75.9053288 L129.692108,75.57649 C129.78778,75.5543642 129.888314,75.5753066 129.967111,75.6340458 C130.242758,75.8395252 130.542501,76.0142365 130.861443,76.1530159 C130.951324,76.1921394 131.019467,76.2689163 131.048139,76.3629061 L131.474981,77.7614574 C131.51824,77.9032131 131.648699,78 131.796461,78 L133.512514,78 C133.660276,78 133.790735,77.9032131 133.833994,77.7614574 L134.260836,76.3629061 C134.289509,76.2689163 134.357616,76.1921394 134.447496,76.1530159 C134.766438,76.0142365 135.066217,75.8395252 135.341864,75.6340458 C135.420661,75.5753066 135.521195,75.5543642 135.616867,75.57649 L137.039218,75.9053288 C137.183227,75.9386072 137.332026,75.8737001 137.405889,75.7453202 L138.263933,74.2546798 C138.337797,74.1262999 138.319456,73.9646059 138.218707,73.8561644 L137.223805,72.7852327 L137.223805,72.7852327 Z M132.65447,73.5175715 C131.818878,73.5175715 131.141523,72.8381267 131.141523,72 C131.141523,71.1618733 131.818878,70.4824285 132.65447,70.4824285 C133.490062,70.4824285 134.167452,71.1618733 134.167452,72 C134.167452,72.8381267 133.490062,73.5175715 132.65447,73.5175715 L132.65447,73.5175715 Z" id="Imported-Layers"></path>
        </g>
    </g>
</svg>