<?xml version="1.0" encoding="UTF-8"?>
<svg width="14px" height="14px" viewBox="0 0 14 14" version="1.1" xmlns="http://www.w3.org/2000/svg" xmlns:xlink="http://www.w3.org/1999/xlink">
    <!-- Generator: Sketch 49.3 (51167) - http://www.bohemiancoding.com/sketch -->
    <title>Combined Shape</title>
    <desc>Created with Sketch.</desc>
    <defs>
        <path d="M133,108 C129.134007,108 126,104.865993 126,101 C126,97.1340068 129.134007,94 133,94 C136.865993,94 140,97.1340068 140,101 C140,104.865993 136.865993,108 133,108 Z M133,106.727273 C136.163085,106.727273 138.727273,104.163085 138.727273,101 C138.727273,97.8369146 136.163085,95.2727273 133,95.2727273 C129.836915,95.2727273 127.272727,97.8369146 127.272727,101 C127.272727,104.163085 129.836915,106.727273 133,106.727273 Z M133.636364,103.545455 C133.636364,103.896908 133.351454,104.181818 133,104.181818 C132.648546,104.181818 132.363636,103.896908 132.363636,103.545455 L132.363636,101 C132.363636,100.648546 132.648546,100.363636 133,100.363636 C133.351454,100.363636 133.636364,100.648546 133.636364,101 L133.636364,103.545455 Z M132.550023,99.5408861 C132.301507,99.2923707 132.301507,98.8894475 132.550023,98.640932 C132.798538,98.3924166 133.201462,98.3924166 133.449977,98.640932 C133.698493,98.8894475 133.698493,99.2923707 133.449977,99.5408861 C133.201462,99.7894016 132.798538,99.7894016 132.550023,99.5408861 Z" id="path-1"></path>
    </defs>
    <g id="Symbols" stroke="none" stroke-width="1" fill="none" fill-rule="evenodd">
        <g id="Ventana-Usuario" transform="translate(-126.000000, -94.000000)">
            <mask id="mask-2" fill="white">
                <use xlink:href="#path-1"></use>
            </mask>
            <use id="Combined-Shape" fill="#B5B5B5" fill-rule="nonzero" xlink:href="#path-1"></use>
        </g>
    </g>
</svg>