<?xml version="1.0" encoding="UTF-8"?>
<svg width="10px" height="12px" viewBox="0 0 10 12" version="1.1" xmlns="http://www.w3.org/2000/svg" xmlns:xlink="http://www.w3.org/1999/xlink">
    <!-- Generator: Sketch 49.3 (51167) - http://www.bohemiancoding.com/sketch -->
    <title>Editar</title>
    <desc>Created with Sketch.</desc>
    <defs></defs>
    <g id="Symbols" stroke="none" stroke-width="1" fill="none" fill-rule="evenodd">
        <g id="table-/-row-cliente" transform="translate(-965.000000, -16.000000)" fill="#BABABA">
            <g id="Editar-Copy" transform="translate(962.000000, 14.000000)">
                <g id="Editar" transform="translate(3.000000, 2.000000)">
                    <path d="M7.38850457,6.63727068 L7.38850457,6.63727068 L10,4.03861477 L7.10829163,1.16282392 L5.17357901,3.08753083 L4.70305078,2.61897279 L6.65848449,0.67426645 L5.98265804,0 L3.35012273,2.61897279 L4.4967962,3.76021003 L0.4048583,7.83088737 L0,11.1111111 L0.577959132,11.0409544 L9.32321719,11.0409544 L9.32321719,10.0886006 L3.91915585,10.0886006 L7.38850457,6.63727068 L7.38850457,6.63727068 Z M7.05540356,2.22222222 L8.88888889,4.0553083 L7.38904089,5.55555556 L5.55555556,3.7217087 L7.05540356,2.22222222 L7.05540356,2.22222222 Z M1.324398,8.26479692 L5.14431572,4.44444444 L6.66666667,5.96708989 L2.84737998,9.78649485 L1.11111111,10 L1.324398,8.26479692 L1.324398,8.26479692 Z" id="Imported-Layers"></path>
                </g>
            </g>
        </g>
    </g>
</svg>