<?xml version="1.0" encoding="UTF-8"?>
<svg width="22px" height="22px" viewBox="0 0 22 22" version="1.1" xmlns="http://www.w3.org/2000/svg" xmlns:xlink="http://www.w3.org/1999/xlink">
    <!-- Generator: Sketch 49.3 (51167) - http://www.bohemiancoding.com/sketch -->
    <title>Group</title>
    <desc>Created with Sketch.</desc>
    <defs>
        <path d="M11,18 C7.13400675,18 4,14.8659932 4,11 C4,7.13400675 7.13400675,4 11,4 C14.8659932,4 18,7.13400675 18,11 C18,14.8659932 14.8659932,18 11,18 Z M11,16.7272727 C14.1630854,16.7272727 16.7272727,14.1630854 16.7272727,11 C16.7272727,7.83691461 14.1630854,5.27272727 11,5.27272727 C7.83691461,5.27272727 5.27272727,7.83691461 5.27272727,11 C5.27272727,14.1630854 7.83691461,16.7272727 11,16.7272727 Z M11.6363636,13.5454545 C11.6363636,13.8969085 11.3514539,14.1818182 11,14.1818182 C10.6485461,14.1818182 10.3636364,13.8969085 10.3636364,13.5454545 L10.3636364,11 C10.3636364,10.6485461 10.6485461,10.3636364 11,10.3636364 C11.3514539,10.3636364 11.6363636,10.6485461 11.6363636,11 L11.6363636,13.5454545 Z M10.550023,9.54088613 C10.3015075,9.29237068 10.3015075,8.88944751 10.550023,8.64093205 C10.7985384,8.39241659 11.2014616,8.39241659 11.449977,8.64093205 C11.6984925,8.88944751 11.6984925,9.29237068 11.449977,9.54088613 C11.2014616,9.78940159 10.7985384,9.78940159 10.550023,9.54088613 Z" id="path-1"></path>
    </defs>
    <g id="Symbols" stroke="none" stroke-width="1" fill="none" fill-rule="evenodd">
        <g id="Icon-/-Sub-Header-/-PSI-Copy-5" transform="translate(-1.000000, -1.000000)">
            <g id="Cost">
                <g id="Icon">
                    <g id="Group" transform="translate(1.000000, 1.000000)">
                        <circle id="Oval-6" fill="#F22961" cx="11" cy="11" r="11"></circle>
                        <mask id="mask-2" fill="white">
                            <use xlink:href="#path-1"></use>
                        </mask>
                        <use id="Combined-Shape" fill="#FFFFFF" fill-rule="nonzero" xlink:href="#path-1"></use>
                    </g>
                </g>
            </g>
        </g>
    </g>
</svg>