<?xml version="1.0" encoding="UTF-8"?>
<svg width="15px" height="15px" viewBox="0 0 15 15" version="1.1" xmlns="http://www.w3.org/2000/svg" xmlns:xlink="http://www.w3.org/1999/xlink">
    <!-- Generator: Sketch 49.3 (51167) - http://www.bohemiancoding.com/sketch -->
    <title>Group 3</title>
    <desc>Created with Sketch.</desc>
    <defs></defs>
    <g id="Symbols" stroke="none" stroke-width="1" fill="none" fill-rule="evenodd">
        <g id="Footer" transform="translate(-1174.000000, -15.000000)" fill="#BABABA">
            <g id="Group-9">
                <g transform="translate(1174.000000, 15.000000)">
                    <g id="Group-2">
                        <g id="Group-3">
                            <path d="M3.42988299,1.61717789 C3.42988299,2.51056739 2.76945506,3.23418766 1.68271113,3.23418766 C0.660427934,3.23418766 0,2.51056739 0,1.61717789 C0,0.702273089 0.68180264,3.01674456e-08 1.72546054,3.01674456e-08 C2.76945506,-0.000168058166 3.40884489,0.702105001 3.42988299,1.61717789 L3.42988299,1.61717789 Z M0.0851622157,14.9158226 L0.0851622157,4.51098665 L3.32368268,4.51098665 L3.32368268,14.9158226 L0.0851622157,14.9158226 L0.0851622157,14.9158226 Z" id="Shape"></path>
                            <path d="M4.90625418,7.83926975 C4.90625418,6.54145973 4.86384137,5.45644953 4.82142857,4.52002942 L7.63329643,4.52002942 L7.78291938,5.9669338 L7.84670689,5.9669338 C8.27268627,5.28567178 9.31668078,4.28571429 11.0638526,4.28571429 C13.1942545,4.28571429 14.79214,5.71143953 14.79214,8.77535369 L14.79214,14.9248654 L11.5536195,14.9248654 L11.5536195,9.158427 C11.5536195,7.81775445 11.0848907,6.90318582 9.9129846,6.90318582 C9.01827642,6.90318582 8.48592842,7.52007001 8.25164817,8.11594315 C8.16614935,8.32857489 8.14477464,8.62659551 8.14477464,8.92461613 L8.14477464,14.9248654 L4.90625418,14.9248654 L4.90625418,7.83926975 L4.90625418,7.83926975 Z" id="Shape"></path>
                        </g>
                    </g>
                </g>
            </g>
        </g>
    </g>
</svg>