<?xml version="1.0" encoding="UTF-8"?>
<svg width="43px" height="35px" viewBox="0 0 43 35" version="1.1" xmlns="http://www.w3.org/2000/svg" xmlns:xlink="http://www.w3.org/1999/xlink">
    <!-- Generator: Sketch 49.3 (51167) - http://www.bohemiancoding.com/sketch -->
    <title>Group 2</title>
    <desc>Created with Sketch.</desc>
    <defs></defs>
    <g id="Symbols" stroke="none" stroke-width="1" fill="none" fill-rule="evenodd">
        <g id="Menú" transform="translate(-11.000000, -18.000000)" fill="#670930">
            <g id="Logo-Admobilly">
                <g transform="translate(11.000000, 18.000000)">
                    <g id="Group-2">
                        <path d="M33.6828502,23.4644615 C33.3784263,23.8242558 33.2275193,24.4100213 33.2291802,25.2222209 C33.2308412,26.0348837 33.3841209,26.6178708 33.6902057,26.9714138 C33.995816,27.3251883 34.4824672,27.501381 35.1508711,27.4999918 L36.6753636,27.496982 C37.2951261,27.4958243 37.7355087,27.3529717 37.9957994,27.0691185 C38.2565648,26.7852654 38.3868288,26.3224412 38.3854051,25.6799515 L38.3797105,22.9166667 L35.1411429,22.9231494 C34.472739,22.9243071 33.9867996,23.1048988 33.6828502,23.4644615" id="Fill-15"></path>
                        <path d="M40.1736097,25.5853425 C40.1759199,26.6812376 39.9446741,27.4939894 39.4791793,28.0240652 C39.0132224,28.5541411 38.3326529,28.8202303 37.4374706,28.8220992 L35.3733535,28.8263043 C34.3739835,28.8284069 33.584144,28.5207339 33.0033728,27.9021174 C32.4221396,27.2835009 32.130599,26.336186 32.1280578,25.0580701 C32.1252856,23.7813559 32.41313,22.832172 32.9918221,22.2116866 C33.5700521,21.5907339 34.3585055,21.2790895 35.3578755,21.2772206 L38.6526084,21.2702121 L38.6583837,14.2715288 C36.7649866,12.7284918 34.3645119,11.794493 31.7438802,11.7730003 C29.7377478,11.7568808 27.8554393,12.2832187 26.2205477,13.2057703 C25.4383317,13.6473055 24.7127142,14.1792503 24.0598664,14.7896902 C22.3131636,16.422436 20.0748614,17.41297 17.6963332,17.4001211 L17.2770413,17.3977849 C14.3602487,17.3741896 11.7056578,16.256101 9.69005376,14.4324906 C9.04598454,13.8496174 8.53844506,13.1366198 8.04407342,12.4196508 C7.896917,12.2061253 7.73220346,12.0066168 7.55085685,11.8232279 C6.75847614,11.0221569 5.66831737,10.5219839 4.45964802,10.512172 C1.83139281,10.4909129 -0.279620296,12.791101 0.0301705309,15.5183401 C0.201121472,17.0209615 1.18039315,18.3329518 2.52305108,18.999226 C3.600042,19.5332734 4.61442792,19.5517291 5.5280914,19.3139075 C5.75564096,19.2545689 5.97626008,19.1781763 6.18810064,19.0854305 C6.95714886,18.7485555 7.73566868,18.424763 8.55946741,18.26824 C9.22756216,18.1413862 9.91644825,18.0759736 10.6221984,18.081814 C14.0273564,18.1096144 17.0552671,19.7105883 19.0382981,22.1972024 C19.9489583,23.3393535 20.5156376,24.7104487 20.9060526,26.1238286 C21.0148606,26.5188741 21.1449219,26.9052758 21.2946195,27.2820992 C21.459795,27.6970021 21.6487651,28.099757 21.8580645,28.4891957 L25.3383023,19.7122236 C25.506712,19.2821356 25.7437332,18.9798359 26.0495968,18.8050907 C26.3549983,18.6303456 26.7474924,18.542973 27.2259241,18.542973 C27.6951151,18.542973 28.0829889,18.6303456 28.3886215,18.8050907 C28.694254,18.9798359 28.9268859,19.2821356 29.0862861,19.7122236 L32.0746934,27.7215319 C32.2745212,28.2527758 31.8864163,28.8220992 31.3238953,28.8220992 L31.302411,28.8220992 C30.9681326,28.8220992 30.6689684,28.6127788 30.5511509,28.2966957 L29.3923807,25.1730094 L27.4821195,25.1730094 C27.1074135,25.1730094 26.8040911,24.8660373 26.8040911,24.487345 C26.8040911,24.1086526 27.1074135,23.8016805 27.4821195,23.8016805 L28.8836862,23.8016805 L27.6512223,20.4784857 C27.5710601,20.2722024 27.4248278,20.1691775 27.2125252,20.1691775 C26.9997606,20.1691775 26.8489079,20.2722024 26.7601983,20.4784857 L22.9348244,30.1329214 C23.3049101,30.6036587 23.71011,31.0451939 24.1508863,31.4493504 C26.3489919,33.4645264 29.3452537,34.6080792 32.6097236,34.3349815 C37.8308888,33.8981186 42.131229,29.7121781 42.7482695,24.4509008 C43.1370674,21.1349481 42.0986559,18.0579851 40.1726857,15.7645719 L40.1736097,25.5853425 Z" id="Fill-17"></path>
                        <path d="M30.3644623,9.73958333 C32.5793091,9.73958333 34.375,7.94418862 34.375,5.72916667 C34.375,3.51438672 32.5793091,1.71875 30.3644623,1.71875 C28.1496156,1.71875 26.3541667,3.51438672 26.3541667,5.72916667 C26.3541667,7.94418862 28.1496156,9.73958333 30.3644623,9.73958333" id="Fill-20"></path>
                        <path d="M17.1875,14.8958333 C21.300947,14.8958333 24.6354167,11.5613637 24.6354167,7.44791667 C24.6354167,3.33446967 21.300947,0 17.1875,0 C13.074053,0 9.73958333,3.33446967 9.73958333,7.44791667 C9.73958333,11.5613637 13.074053,14.8958333 17.1875,14.8958333" id="Fill-22"></path>
                    </g>
                </g>
            </g>
        </g>
    </g>
</svg>