<?xml version="1.0" encoding="UTF-8"?>
<svg width="14px" height="14px" viewBox="0 0 14 14" version="1.1" xmlns="http://www.w3.org/2000/svg" xmlns:xlink="http://www.w3.org/1999/xlink">
    <!-- Generator: Sketch 49.3 (51167) - http://www.bohemiancoding.com/sketch -->
    <title>Group 4</title>
    <desc>Created with Sketch.</desc>
    <defs></defs>
    <g id="Symbols" stroke="none" stroke-width="1" fill="none" fill-rule="evenodd">
        <g id="Menú" transform="translate(-26.000000, -207.000000)" fill="#FFFFFF">
            <g transform="translate(0.000000, 3.000000)" id="sidebar-menu">
                <g transform="translate(0.000000, 70.000000)">
                    <g id="menu" transform="translate(0.000000, 0.936020)">
                        <g id="Usuarios" transform="translate(0.000000, 133.000000)">
                            <g id="Group-5" transform="translate(26.000000, 0.000000)">
                                <g id="Group-4">
                                    <path d="M6.98265942,0.157732374 C3.23289758,0.157732374 0.181479824,3.25905329 0.181479824,7.07101951 C0.181479824,10.8825907 3.23289758,13.9835166 6.98265942,13.9835166 C10.7324213,13.9835166 13.7830618,10.8825907 13.7830618,7.07101951 C13.7830618,3.25905329 10.7324213,0.157732374 6.98265942,0.157732374 M5.39671496,12.5638061 L5.39671496,9.94322743 C5.39671496,9.19465997 5.99557318,8.58593044 6.73161307,8.58593044 L7.23409437,8.58593044 C7.97052288,8.58593044 8.5693811,9.19465997 8.5693811,9.94322743 L8.5693811,12.5634111 C8.06534534,12.7143096 7.53410641,12.7984494 6.98265942,12.7984494 C6.43198965,12.7984494 5.89997349,12.7143096 5.39671496,12.5638061 M9.71074814,12.0787186 L9.71074814,9.94322743 C9.71074814,8.55472367 8.60008182,7.42535461 7.23409437,7.42535461 L6.73161307,7.42535461 C5.36523701,7.42535461 4.25457069,8.55472367 4.25457069,9.94322743 L4.25457069,12.0787186 C2.522895,11.1002481 1.34732971,9.22310159 1.34732971,7.07101951 C1.34732971,3.91202533 3.87528086,1.34279959 6.98265942,1.34279959 C10.090038,1.34279959 12.6172119,3.91202533 12.6172119,7.07101951 C12.6172119,9.22310159 11.4424238,11.1002481 9.71074814,12.0787186" id="Fill-1"></path>
                                    <path d="M6.9822708,3.44087285 C6.07583013,3.44087285 5.34070056,4.17600241 5.34070056,5.08244308 C5.34070056,5.98888375 6.07583013,6.72401332 6.9822708,6.72401332 C7.88871147,6.72401332 8.62384103,5.98888375 8.62384103,5.08244308 C8.62384103,4.17600241 7.88871147,3.44087285 6.9822708,3.44087285" id="Fill-2"></path>
                                </g>
                            </g>
                        </g>
                    </g>
                </g>
            </g>
        </g>
    </g>
</svg>