<?xml version="1.0" encoding="UTF-8"?>
<svg width="14px" height="15px" viewBox="0 0 14 15" version="1.1" xmlns="http://www.w3.org/2000/svg" xmlns:xlink="http://www.w3.org/1999/xlink">
    <!-- Generator: Sketch 49.3 (51167) - http://www.bohemiancoding.com/sketch -->
    <title>text</title>
    <desc>Created with Sketch.</desc>
    <defs></defs>
    <g id="Symbols" stroke="none" stroke-width="1" fill="none" fill-rule="evenodd">
        <g id="Menú" transform="translate(-26.000000, -149.000000)" fill="#FFFFFF">
            <g transform="translate(0.000000, 3.000000)" id="sidebar-menu">
                <g transform="translate(0.000000, 70.000000)">
                    <g id="menu" transform="translate(0.000000, 0.936020)">
                        <g id="Campañas" transform="translate(1.181480, 55.005711)">
                            <g id="Group">
                                <g id="Campañas">
                                    <path d="M25.0475545,21.8466983 L25.0475545,34.1533017 C25.0475545,34.6211809 25.485204,35 26.0241278,35 L37.0709811,35 C37.6099049,35 38.0475545,34.6211809 38.0475545,34.1533017 L38.0475545,21.8466983 C38.0475545,21.3788191 37.6099049,21 37.0709811,21 L26.0241278,21 C25.485204,21 25.0475545,21.3788191 25.0475545,21.8466983 L25.0475545,21.8466983 Z M36.2657641,33.782636 L26.8293448,33.782636 C26.5632483,33.782636 26.3475545,33.5994983 26.3475545,33.3749664 L26.3475545,22.626288 C26.3475545,22.4011289 26.5632483,22.2186184 26.8293448,22.2186184 L36.2657641,22.2186184 C36.5318606,22.2186184 36.7475545,22.4011289 36.7475545,22.626288 L36.7475545,33.3749664 C36.7475545,33.5994983 36.5318606,33.782636 36.2657641,33.782636 L36.2657641,33.782636 Z M34.7975545,25.2551048 C34.7968793,25.5881071 34.5281642,25.8695652 34.197334,25.8695652 L29.5002205,25.8695652 C29.1687151,25.8695652 28.9,25.5996367 28.9,25.2666344 C28.9,24.9343103 29.1687151,24.6521739 29.5002205,24.6521739 L34.197334,24.6521739 C34.5288393,24.6521739 34.7975545,24.9221025 34.7975545,25.2551048 Z M34.7975545,27.6895517 C34.7968793,28.0223685 34.5281642,28.3043478 34.197334,28.3043478 L29.5002205,28.3043478 C29.1687151,28.3043478 28.9,28.0345696 28.9,27.7017527 C28.9,27.3689358 29.1687151,27.0869565 29.5002205,27.0869565 L34.197334,27.0869565 C34.5288393,27.0869565 34.7975545,27.3574126 34.7975545,27.6895517 Z M34.1475545,30.1243343 C34.1475545,30.4571512 33.8299561,30.7391304 33.4389431,30.7391304 L29.6094094,30.7391304 C29.2175983,30.7391304 28.9,30.4693522 28.9,30.1365353 C28.9,29.8037184 29.2175983,29.5217391 29.6094094,29.5217391 L33.4389431,29.5217391 C33.8299561,29.5217391 34.1475545,29.7915174 34.1475545,30.1243343 Z" id="text"></path>
                                </g>
                            </g>
                        </g>
                    </g>
                </g>
            </g>
        </g>
    </g>
</svg>