<?xml version="1.0" encoding="UTF-8"?>
<svg width="14px" height="14px" viewBox="0 0 14 14" version="1.1" xmlns="http://www.w3.org/2000/svg" xmlns:xlink="http://www.w3.org/1999/xlink">
    <!-- Generator: Sketch 49.3 (51167) - http://www.bohemiancoding.com/sketch -->
    <title>Search</title>
    <desc>Created with Sketch.</desc>
    <defs></defs>
    <g id="Page-1" stroke="none" stroke-width="1" fill="none" fill-rule="evenodd">
        <g id="Admin--lista-usuario" transform="translate(-1216.000000, -98.000000)" fill="#CCCCCC">
            <g id="Group-2" transform="translate(64.000000, 74.000000)">
                <path d="M1165.68532,35.8444942 L1162.33692,32.496201 C1162.84197,31.6666593 1163.1326,30.6926877 1163.1326,29.6504884 C1163.1326,26.6231309 1160.50934,24 1157.4815,24 C1154.45438,24 1152,26.4544226 1152,29.4819573 C1152,32.5094921 1154.62326,35.1324458 1157.65038,35.1324458 C1158.65694,35.1324458 1159.59971,34.8598897 1160.41027,34.3863722 L1163.77658,37.7529185 C1164.10602,38.0823605 1164.64013,38.0823605 1164.96921,37.7529185 L1165.80441,36.9182376 C1166.1342,36.5886184 1166.01476,36.1739362 1165.68532,35.8444942 L1165.68532,35.8444942 Z M1153.68723,29.4819573 C1153.68723,27.3858627 1155.38633,25.6867288 1157.48168,25.6867288 C1159.57809,25.6867288 1161.44572,27.5543938 1161.44572,29.6504884 C1161.44572,31.7465831 1159.74662,33.4457169 1157.65056,33.4457169 C1155.55486,33.4457169 1153.68723,31.578052 1153.68723,29.4819573 L1153.68723,29.4819573 Z" id="Search"></path>
            </g>
        </g>
    </g>
</svg>