<?xml version="1.0" encoding="UTF-8"?>
<svg width="19px" height="15px" viewBox="0 0 19 15" version="1.1" xmlns="http://www.w3.org/2000/svg" xmlns:xlink="http://www.w3.org/1999/xlink">
    <!-- Generator: Sketch 49.3 (51167) - http://www.bohemiancoding.com/sketch -->
    <title>Twitter</title>
    <desc>Created with Sketch.</desc>
    <defs></defs>
    <g id="Symbols" stroke="none" stroke-width="1" fill="none" fill-rule="evenodd">
        <g id="Footer" transform="translate(-1208.000000, -15.000000)" fill="#BABABA">
            <g id="Twitter">
                <path d="M1226.48135,16.7753391 C1225.80096,17.0766792 1225.07054,17.280114 1224.30337,17.3718 C1225.08641,16.9031378 1225.68766,16.1610224 1225.97091,15.2768638 C1225.23808,15.7106171 1224.42651,16.0258005 1223.56311,16.1957307 C1222.87146,15.4596341 1221.88572,15 1220.79553,15 C1218.70151,15 1217.00383,16.6952893 1217.00383,18.7866142 C1217.00383,19.08334 1217.03718,19.372442 1217.10187,19.6495065 C1213.9508,19.4918145 1211.15609,17.9841104 1209.28666,15.692962 C1208.96023,16.2523072 1208.773,16.9027365 1208.773,17.5967017 C1208.773,18.9104004 1209.44235,20.069216 1210.45963,20.7485354 C1209.83849,20.7288741 1209.25352,20.5589439 1208.74227,20.2752588 C1208.74187,20.2909076 1208.74187,20.3065565 1208.74187,20.3226065 C1208.74187,22.1575315 1210.04922,23.6879063 1211.78345,24.0357917 C1211.46566,24.1224621 1211.13058,24.1688067 1210.78446,24.1688067 C1210.54038,24.1688067 1210.30314,24.1451328 1210.07112,24.1007945 C1210.55364,25.6050879 1211.95441,26.7001043 1213.61331,26.7303988 C1212.3154,27.746168 1210.6808,28.3516572 1208.90438,28.3516572 C1208.59843,28.3516572 1208.29671,28.3336008 1208,28.29809 C1209.67779,29.3728433 1211.67036,30 1213.81239,30 C1220.78649,30 1224.60048,24.2293957 1224.60048,19.2251826 C1224.60048,19.0614718 1224.59686,18.8979616 1224.58943,18.735254 C1225.33009,18.2019902 1225.97272,17.5351095 1226.48135,16.7753391 L1226.48135,16.7753391 Z"></path>
            </g>
        </g>
    </g>
</svg>